P3
# CREATOR: GIMP PNM Filter Version 1.1
100 25
255
0
0
0
0
0
0
0
0
0
0
0
0
0
0
0
0
0
0
0
0
0
0
0
0
0
0
0
0
0
0
0
0
0
0
0
0
0
0
0
0
0
0
0
0
0
0
0
0
0
0
0
0
0
0
0
0
0
0
0
0
0
0
0
0
0
0
0
0
0
0
0
0
0
0
0
0
0
0
1
1
1
1
1
1
2
2
2
2
2
2
3
3
3
4
4
4
6
6
6
7
7
7
8
8
8
10
10
10
13
13
13
15
15
15
18
18
18
21
21
21
24
24
24
26
26
26
28
28
28
30
30
30
32
32
32
33
33
33
34
34
34
34
34
34
33
33
33
33
33
33
30
30
30
28
28
28
27
27
27
24
24
24
22
22
22
18
18
18
16
16
16
14
14
14
11
11
11
8
8
8
8
8
8
5
5
5
4
4
4
3
3
3
2
2
2
2
2
2
1
1
1
1
1
1
0
0
0
0
0
0
0
0
0
0
0
0
0
0
0
0
0
0
0
0
0
0
0
0
0
0
0
0
0
0
0
0
0
0
0
0
0
0
0
0
0
0
0
0
0
0
0
0
0
0
0
0
0
0
0
0
0
0
0
0
0
0
0
0
0
0
0
0
0
0
0
0
0
0
0
0
0
0
0
0
0
0
0
0
0
0
0
0
0
0
0
0
0
0
0
0
0
0
0
0
0
0
0
0
0
0
0
0
0
0
0
0
0
0
0
0
0
0
0
0
0
0
0
0
0
0
0
0
0
0
0
0
0
0
0
0
0
0
0
0
0
0
0
0
0
0
0
0
0
0
0
0
0
0
0
0
0
0
0
0
0
0
0
0
0
0
0
0
0
0
0
0
0
0
1
1
1
1
1
1
2
2
2
2
2
2
3
3
3
4
4
4
5
5
5
7
7
7
8
8
8
11
11
11
14
14
14
15
15
15
19
19
19
21
21
21
24
24
24
27
27
27
28
28
28
30
30
30
32
32
32
34
34
34
34
34
34
34
34
34
34
34
34
33
33
33
32
32
32
30
30
30
27
27
27
25
25
25
21
21
21
19
19
19
16
16
16
13
13
13
11
11
11
10
10
10
7
7
7
5
5
5
5
5
5
3
3
3
3
3
3
2
2
2
1
1
1
1
1
1
0
0
0
0
0
0
0
0
0
0
0
0
0
0
0
0
0
0
0
0
0
0
0
0
0
0
0
0
0
0
0
0
0
0
0
0
0
0
0
0
0
0
0
0
0
0
0
0
0
0
0
0
0
0
0
0
0
0
0
0
0
0
0
0
0
0
0
0
0
0
0
0
0
0
0
0
0
0
0
0
0
0
0
0
0
0
0
0
0
0
0
0
0
0
0
0
0
0
0
0
0
0
0
0
0
0
0
0
0
0
0
0
0
0
0
0
0
0
0
0
0
0
0
0
0
0
0
0
0
0
0
0
0
0
0
0
0
0
0
0
0
0
0
0
0
0
0
0
0
0
0
0
0
0
0
0
0
0
0
0
0
0
0
0
0
0
0
0
0
0
0
0
0
0
1
1
1
1
1
1
2
2
2
2
2
2
3
3
3
5
5
5
5
5
5
7
7
7
10
10
10
12
12
12
13
13
13
16
16
16
19
19
19
21
21
21
25
25
25
27
27
27
30
30
30
32
32
32
33
33
33
34
34
34
35
35
35
35
35
35
34
34
34
33
33
33
31
31
31
29
29
29
28
28
28
25
25
25
22
22
22
19
19
19
16
16
16
14
14
14
12
12
12
10
10
10
8
8
8
5
5
5
5
5
5
3
3
3
2
2
2
2
2
2
1
1
1
1
1
1
0
0
0
0
0
0
0
0
0
0
0
0
0
0
0
0
0
0
0
0
0
0
0
0
0
0
0
0
0
0
0
0
0
0
0
0
0
0
0
0
0
0
0
0
0
0
0
0
0
0
0
0
0
0
0
0
0
0
0
0
0
0
0
0
0
0
0
0
0
0
0
0
0
0
0
0
0
0
0
0
0
0
0
0
0
0
0
0
0
0
0
0
0
0
0
0
0
0
0
0
0
0
0
0
0
0
0
0
0
0
0
0
0
0
0
0
0
0
0
0
0
0
0
0
0
0
0
0
0
0
0
0
0
0
0
0
0
0
0
0
0
0
0
0
0
0
0
0
0
0
0
0
0
0
0
0
0
0
0
0
0
0
0
0
0
0
0
0
0
0
0
0
0
0
1
1
1
1
1
1
2
2
2
2
2
2
4
4
4
4
4
4
5
5
5
8
8
8
10
10
10
12
12
12
14
14
14
16
16
16
19
19
19
22
22
22
24
24
24
28
28
28
29
29
29
31
31
31
34
34
34
34
34
34
35
35
35
35
35
35
35
35
35
33
33
33
32
32
32
30
30
30
27
27
27
25
25
25
22
22
22
20
20
20
16
16
16
14
14
14
12
12
12
10
10
10
8
8
8
5
5
5
4
4
4
4
4
4
2
2
2
2
2
2
1
1
1
1
1
1
0
0
0
0
0
0
0
0
0
0
0
0
0
0
0
0
0
0
0
0
0
0
0
0
0
0
0
0
0
0
0
0
0
0
0
0
0
0
0
0
0
0
0
0
0
0
0
0
0
0
0
0
0
0
0
0
0
0
0
0
0
0
0
0
0
0
0
0
0
0
0
0
0
0
0
0
0
0
0
0
0
0
0
0
0
0
0
0
0
0
0
0
0
0
0
0
0
0
0
0
0
0
0
0
0
0
0
0
0
0
0
0
0
0
0
0
0
0
0
0
0
0
0
0
0
0
0
0
0
0
0
0
0
0
0
0
0
0
0
0
0
0
0
0
0
0
0
0
0
0
0
0
0
0
0
0
0
0
0
0
0
0
0
0
0
0
0
0
0
0
0
1
1
1
1
1
1
1
1
1
2
2
2
2
2
2
4
4
4
4
4
4
6
6
6
8
8
8
10
10
10
11
11
11
14
14
14
16
16
16
20
20
20
22
22
22
25
25
25
27
27
27
30
30
30
33
33
33
34
34
34
35
35
35
36
36
36
36
36
36
35
35
35
34
34
34
32
32
32
30
30
30
28
28
28
26
26
26
22
22
22
20
20
20
17
17
17
15
15
15
11
11
11
10
10
10
8
8
8
6
6
6
4
4
4
4
4
4
2
2
2
2
2
2
1
1
1
1
1
1
0
0
0
0
0
0
0
0
0
0
0
0
0
0
0
0
0
0
0
0
0
0
0
0
0
0
0
0
0
0
0
0
0
0
0
0
0
0
0
0
0
0
0
0
0
0
0
0
0
0
0
0
0
0
0
0
0
0
0
0
0
0
0
0
0
0
0
0
0
0
0
0
0
0
0
0
0
0
0
0
0
0
0
0
0
0
0
0
0
0
0
0
0
0
0
0
0
0
0
0
0
0
0
0
0
0
0
0
0
0
0
0
0
0
0
0
0
0
0
0
0
0
0
0
0
0
0
0
0
0
0
0
0
0
0
0
0
0
0
0
0
0
0
0
0
0
0
0
0
0
0
0
0
0
0
0
0
0
0
0
0
0
0
0
0
0
0
0
0
0
0
1
1
1
1
1
1
1
1
1
2
2
2
2
2
2
4
4
4
4
4
4
6
6
6
7
7
7
10
10
10
12
12
12
15
15
15
17
17
17
20
20
20
22
22
22
26
26
26
28
28
28
30
30
30
32
32
32
35
35
35
35
35
35
36
36
36
36
36
36
36
36
36
35
35
35
33
33
33
31
31
31
29
29
29
25
25
25
23
23
23
20
20
20
17
17
17
15
15
15
12
12
12
10
10
10
8
8
8
6
6
6
4
4
4
4
4
4
2
2
2
2
2
2
1
1
1
1
1
1
0
0
0
0
0
0
0
0
0
0
0
0
0
0
0
0
0
0
0
0
0
0
0
0
0
0
0
0
0
0
0
0
0
0
0
0
0
0
0
0
0
0
0
0
0
0
0
0
0
0
0
0
0
0
0
0
0
0
0
0
0
0
0
0
0
0
0
0
0
0
0
0
0
0
0
0
0
0
0
0
0
0
0
0
0
0
0
0
0
0
0
0
0
0
0
0
0
0
0
0
0
0
0
0
0
0
0
0
0
0
0
0
0
0
0
0
0
0
0
0
0
0
0
0
0
0
0
0
0
0
0
0
0
0
0
0
0
0
0
0
0
0
0
0
0
0
0
0
0
0
0
0
0
0
0
0
0
0
0
0
0
0
0
0
0
0
0
0
0
0
0
1
1
1
1
1
1
1
1
1
2
2
2
2
2
2
4
4
4
4
4
4
7
7
7
7
7
7
9
9
9
12
12
12
14
14
14
17
17
17
20
20
20
23
23
23
26
26
26
29
29
29
31
31
31
33
33
33
34
34
34
36
36
36
37
37
37
37
37
37
36
36
36
35
35
35
34
34
34
31
31
31
28
28
28
26
26
26
23
23
23
20
20
20
18
18
18
14
14
14
12
12
12
10
10
10
8
8
8
6
6
6
4
4
4
4
4
4
2
2
2
2
2
2
1
1
1
1
1
1
0
0
0
0
0
0
0
0
0
0
0
0
0
0
0
0
0
0
0
0
0
0
0
0
0
0
0
0
0
0
0
0
0
0
0
0
0
0
0
0
0
0
0
0
0
0
0
0
0
0
0
0
0
0
0
0
0
0
0
0
0
0
0
0
0
0
0
0
0
0
0
0
0
0
0
0
0
0
0
0
0
0
0
0
0
0
0
0
0
0
0
0
0
0
0
0
0
0
0
0
0
0
0
0
0
0
0
0
0
0
0
0
0
0
0
0
0
0
0
0
0
0
0
0
0
0
0
0
0
0
0
0
0
0
0
0
0
0
0
0
0
0
0
0
0
0
0
0
0
0
0
0
0
0
0
0
0
0
0
0
0
0
0
0
0
0
0
0
0
0
0
1
1
1
1
1
1
2
2
2
2
2
2
3
3
3
3
3
3
5
5
5
6
6
6
8
8
8
10
10
10
12
12
12
15
15
15
17
17
17
21
21
21
23
23
23
26
26
26
29
29
29
32
32
32
33
33
33
35
35
35
36
36
36
37
37
37
37
37
37
37
37
37
36
36
36
34
34
34
31
31
31
29
29
29
27
27
27
24
24
24
20
20
20
17
17
17
15
15
15
13
13
13
9
9
9
7
7
7
7
7
7
4
4
4
4
4
4
2
2
2
2
2
2
1
1
1
1
1
1
0
0
0
0
0
0
0
0
0
0
0
0
0
0
0
0
0
0
0
0
0
0
0
0
0
0
0
0
0
0
0
0
0
0
0
0
0
0
0
0
0
0
0
0
0
0
0
0
0
0
0
0
0
0
0
0
0
0
0
0
0
0
0
0
0
0
0
0
0
0
0
0
0
0
0
0
0
0
0
0
0
0
0
0
0
0
0
0
0
0
0
0
0
0
0
0
0
0
0
0
0
0
0
0
0
0
0
0
0
0
0
0
0
0
0
0
0
0
0
0
0
0
0
0
0
0
0
0
0
0
0
0
0
0
0
0
0
0
0
0
0
0
0
0
0
0
0
0
0
0
0
0
0
0
0
0
0
0
0
0
0
0
0
0
0
0
0
0
0
0
0
1
1
1
1
1
1
2
2
2
2
2
2
3
3
3
4
4
4
5
5
5
6
6
6
8
8
8
10
10
10
13
13
13
15
15
15
18
18
18
20
20
20
24
24
24
27
27
27
29
29
29
32
32
32
33
33
33
36
36
36
37
37
37
37
37
37
37
37
37
37
37
37
35
35
35
34
34
34
32
32
32
30
30
30
26
26
26
23
23
23
20
20
20
18
18
18
15
15
15
12
12
12
10
10
10
8
8
8
7
7
7
4
4
4
4
4
4
2
2
2
2
2
2
1
1
1
1
1
1
0
0
0
0
0
0
0
0
0
0
0
0
0
0
0
0
0
0
0
0
0
0
0
0
0
0
0
0
0
0
0
0
0
0
0
0
0
0
0
0
0
0
0
0
0
0
0
0
0
0
0
0
0
0
0
0
0
0
0
0
0
0
0
0
0
0
0
0
0
0
0
0
0
0
0
0
0
0
0
0
0
0
0
0
0
0
0
0
0
0
0
0
0
0
0
0
0
0
0
0
0
0
0
0
0
0
0
0
0
0
0
0
0
0
0
0
0
0
0
0
0
0
0
0
0
0
0
0
0
0
0
0
0
0
0
0
0
0
0
0
0
0
0
0
0
0
0
0
0
0
0
0
0
0
0
0
0
0
0
0
0
0
0
0
0
0
0
0
0
0
0
1
1
1
1
1
1
2
2
2
2
2
2
3
3
3
4
4
4
5
5
5
6
6
6
8
8
8
10
10
10
12
12
12
16
16
16
18
18
18
21
21
21
24
24
24
26
26
26
30
30
30
32
32
32
34
34
34
35
35
35
37
37
37
38
38
38
38
38
38
37
37
37
36
36
36
34
34
34
32
32
32
30
30
30
27
27
27
24
24
24
21
21
21
18
18
18
15
15
15
13
13
13
10
10
10
9
9
9
6
6
6
4
4
4
4
4
4
2
2
2
2
2
2
1
1
1
1
1
1
1
1
1
0
0
0
0
0
0
0
0
0
0
0
0
0
0
0
0
0
0
0
0
0
0
0
0
0
0
0
0
0
0
0
0
0
0
0
0
0
0
0
0
0
0
0
0
0
0
0
0
0
0
0
0
0
0
0
0
0
0
0
0
0
0
0
0
0
0
0
0
0
0
0
0
0
0
0
0
0
0
0
0
0
0
0
0
0
0
0
0
0
0
0
0
0
0
0
0
0
0
0
0
0
0
0
0
0
0
0
0
0
0
0
0
0
0
0
0
0
0
0
0
0
0
0
0
0
0
0
0
0
0
0
0
0
0
0
0
0
0
0
0
0
0
0
0
0
0
0
0
0
0
0
0
0
0
0
0
0
0
0
0
0
0
0
0
0
0
0
0
1
1
1
1
1
1
2
2
2
2
2
2
3
3
3
4
4
4
5
5
5
7
7
7
8
8
8
10
10
10
12
12
12
16
16
16
18
18
18
21
21
21
24
24
24
27
27
27
29
29
29
33
33
33
34
34
34
36
36
36
37
37
37
38
38
38
38
38
38
38
38
38
36
36
36
34
34
34
33
33
33
30
30
30
27
27
27
24
24
24
21
21
21
18
18
18
16
16
16
12
12
12
10
10
10
8
8
8
6
6
6
5
5
5
3
3
3
2
2
2
2
2
2
1
1
1
1
1
1
1
1
1
0
0
0
0
0
0
0
0
0
0
0
0
0
0
0
0
0
0
0
0
0
0
0
0
0
0
0
0
0
0
0
0
0
0
0
0
0
0
0
0
0
0
0
0
0
0
0
0
0
0
0
0
0
0
0
0
0
0
0
0
0
0
0
0
0
0
0
0
0
0
0
0
0
0
0
0
0
0
0
0
0
0
0
0
0
0
0
0
0
0
0
0
0
0
0
0
0
0
0
0
0
0
0
0
0
0
0
0
0
0
0
0
0
0
0
0
0
0
0
0
0
0
0
0
0
0
0
0
0
0
0
0
0
0
0
0
0
0
0
0
0
0
0
0
0
0
0
0
0
0
0
0
0
0
0
0
0
0
0
0
0
0
0
0
0
0
0
0
1
1
1
1
1
1
2
2
2
2
2
2
3
3
3
4
4
4
6
6
6
6
6
6
8
8
8
10
10
10
13
13
13
15
15
15
19
19
19
22
22
22
24
24
24
27
27
27
30
30
30
32
32
32
34
34
34
37
37
37
38
38
38
38
38
38
38
38
38
38
38
38
37
37
37
34
34
34
32
32
32
30
30
30
28
28
28
25
25
25
21
21
21
19
19
19
15
15
15
12
12
12
10
10
10
8
8
8
6
6
6
5
5
5
3
3
3
2
2
2
2
2
2
1
1
1
1
1
1
1
1
1
0
0
0
0
0
0
0
0
0
0
0
0
0
0
0
0
0
0
0
0
0
0
0
0
0
0
0
0
0
0
0
0
0
0
0
0
0
0
0
0
0
0
0
0
0
0
0
0
0
0
0
0
0
0
0
0
0
0
0
0
0
0
0
0
0
0
0
0
0
0
0
0
0
0
0
0
0
0
0
0
0
0
0
0
0
0
0
0
0
0
0
0
0
0
0
0
0
0
0
0
0
0
0
0
0
0
0
0
0
0
0
0
0
0
0
0
0
0
0
0
0
0
0
0
0
0
0
0
0
0
0
0
0
0
0
0
0
0
0
0
0
0
0
0
0
0
0
0
0
0
0
0
0
0
0
0
0
0
0
0
0
0
0
0
0
0
0
0
1
1
1
1
1
1
2
2
2
2
2
2
3
3
3
4
4
4
6
6
6
6
6
6
8
8
8
11
11
11
13
13
13
15
15
15
18
18
18
22
22
22
24
24
24
28
28
28
30
30
30
32
32
32
34
34
34
37
37
37
38
38
38
38
38
38
38
38
38
38
38
38
37
37
37
35
35
35
32
32
32
30
30
30
28
28
28
24
24
24
22
22
22
18
18
18
16
16
16
12
12
12
10
10
10
8
8
8
6
6
6
5
5
5
3
3
3
2
2
2
2
2
2
1
1
1
1
1
1
1
1
1
0
0
0
0
0
0
0
0
0
0
0
0
0
0
0
0
0
0
0
0
0
0
0
0
0
0
0
0
0
0
0
0
0
0
0
0
0
0
0
0
0
0
0
0
0
0
0
0
0
0
0
0
0
0
0
0
0
0
0
0
0
0
0
0
0
0
0
0
0
0
0
0
0
0
0
0
0
0
0
0
0
0
0
0
0
0
0
0
0
0
0
0
0
0
0
0
0
0
0
0
0
0
0
0
0
0
0
0
0
0
0
0
0
0
0
0
0
0
0
0
0
0
0
0
0
0
0
0
0
0
0
0
0
0
0
0
0
0
0
0
0
0
0
0
0
0
0
0
0
0
0
0
0
0
0
0
0
0
0
0
0
0
0
0
0
0
0
0
1
1
1
1
1
1
2
2
2
2
2
2
3
3
3
4
4
4
6
6
6
6
6
6
8
8
8
10
10
10
14
14
14
16
16
16
18
18
18
22
22
22
24
24
24
27
27
27
31
31
31
33
33
33
35
35
35
37
37
37
38
38
38
39
39
39
39
39
39
38
38
38
37
37
37
36
36
36
33
33
33
31
31
31
28
28
28
24
24
24
22
22
22
18
18
18
15
15
15
13
13
13
10
10
10
8
8
8
6
6
6
5
5
5
3
3
3
2
2
2
2
2
2
1
1
1
1
1
1
1
1
1
0
0
0
0
0
0
0
0
0
0
0
0
0
0
0
0
0
0
0
0
0
0
0
0
0
0
0
0
0
0
0
0
0
0
0
0
0
0
0
0
0
0
0
0
0
0
0
0
0
0
0
0
0
0
0
0
0
0
0
0
0
0
0
0
0
0
0
0
0
0
0
0
0
0
0
0
0
0
0
0
0
0
0
0
0
0
0
0
0
0
0
0
0
0
0
0
0
0
0
0
0
0
0
0
0
0
0
0
0
0
0
0
0
0
0
0
0
0
0
0
0
0
0
0
0
0
0
0
0
0
0
0
0
0
0
0
0
0
0
0
0
0
0
0
0
0
0
0
0
0
0
0
0
0
0
0
0
0
0
0
0
0
0
0
0
0
0
0
1
1
1
1
1
1
2
2
2
2
2
2
3
3
3
4
4
4
5
5
5
7
7
7
8
8
8
11
11
11
14
14
14
16
16
16
19
19
19
22
22
22
25
25
25
27
27
27
31
31
31
33
33
33
36
36
36
37
37
37
38
38
38
39
39
39
39
39
39
38
38
38
37
37
37
36
36
36
34
34
34
30
30
30
28
28
28
24
24
24
22
22
22
18
18
18
15
15
15
13
13
13
10
10
10
8
8
8
6
6
6
5
5
5
3
3
3
2
2
2
2
2
2
1
1
1
1
1
1
1
1
1
0
0
0
0
0
0
0
0
0
0
0
0
0
0
0
0
0
0
0
0
0
0
0
0
0
0
0
0
0
0
0
0
0
0
0
0
0
0
0
0
0
0
0
0
0
0
0
0
0
0
0
0
0
0
0
0
0
0
0
0
0
0
0
0
0
0
0
0
0
0
0
0
0
0
0
0
0
0
0
0
0
0
0
0
0
0
0
0
0
0
0
0
0
0
0
0
0
0
0
0
0
0
0
0
0
0
0
0
0
0
0
0
0
0
0
0
0
0
0
0
0
0
0
0
0
0
0
0
0
0
0
0
0
0
0
0
0
0
0
0
0
0
0
0
0
0
0
0
0
0
0
0
0
0
0
0
0
0
0
0
0
0
0
0
0
0
0
0
1
1
1
1
1
1
2
2
2
2
2
2
3
3
3
4
4
4
6
6
6
7
7
7
8
8
8
11
11
11
14
14
14
16
16
16
19
19
19
22
22
22
25
25
25
28
28
28
30
30
30
34
34
34
36
36
36
37
37
37
39
39
39
39
39
39
39
39
39
39
39
39
37
37
37
36
36
36
34
34
34
30
30
30
28
28
28
25
25
25
22
22
22
18
18
18
15
15
15
13
13
13
10
10
10
8
8
8
6
6
6
5
5
5
3
3
3
3
3
3
2
2
2
1
1
1
1
1
1
1
1
1
0
0
0
0
0
0
0
0
0
0
0
0
0
0
0
0
0
0
0
0
0
0
0
0
0
0
0
0
0
0
0
0
0
0
0
0
0
0
0
0
0
0
0
0
0
0
0
0
0
0
0
0
0
0
0
0
0
0
0
0
0
0
0
0
0
0
0
0
0
0
0
0
0
0
0
0
0
0
0
0
0
0
0
0
0
0
0
0
0
0
0
0
0
0
0
0
0
0
0
0
0
0
0
0
0
0
0
0
0
0
0
0
0
0
0
0
0
0
0
0
0
0
0
0
0
0
0
0
0
0
0
0
0
0
0
0
0
0
0
0
0
0
0
0
0
0
0
0
0
0
0
0
0
0
0
0
0
0
0
0
0
0
0
0
0
0
0
0
1
1
1
1
1
1
2
2
2
2
2
2
3
3
3
4
4
4
6
6
6
8
8
8
8
8
8
12
12
12
13
13
13
17
17
17
19
19
19
22
22
22
25
25
25
28
28
28
31
31
31
34
34
34
36
36
36
38
38
38
38
38
38
39
39
39
39
39
39
38
38
38
38
38
38
36
36
36
34
34
34
30
30
30
28
28
28
25
25
25
22
22
22
19
19
19
15
15
15
13
13
13
10
10
10
8
8
8
6
6
6
5
5
5
3
3
3
3
3
3
2
2
2
1
1
1
1
1
1
1
1
1
0
0
0
0
0
0
0
0
0
0
0
0
0
0
0
0
0
0
0
0
0
0
0
0
0
0
0
0
0
0
0
0
0
0
0
0
0
0
0
0
0
0
0
0
0
0
0
0
0
0
0
0
0
0
0
0
0
0
0
0
0
0
0
0
0
0
0
0
0
0
0
0
0
0
0
0
0
0
0
0
0
0
0
0
0
0
0
0
0
0
0
0
0
0
0
0
0
0
0
0
0
0
0
0
0
0
0
0
0
0
0
0
0
0
0
0
0
0
0
0
0
0
0
0
0
0
0
0
0
0
0
0
0
0
0
0
0
0
0
0
0
0
0
0
0
0
0
0
0
0
0
0
0
0
0
0
0
0
0
0
0
0
0
0
0
0
0
0
1
1
1
1
1
1
2
2
2
2
2
2
3
3
3
4
4
4
5
5
5
8
8
8
9
9
9
11
11
11
13
13
13
17
17
17
19
19
19
22
22
22
25
25
25
28
28
28
31
31
31
34
34
34
36
36
36
38
38
38
38
38
38
39
39
39
39
39
39
38
38
38
38
38
38
36
36
36
33
33
33
31
31
31
28
28
28
25
25
25
22
22
22
18
18
18
16
16
16
13
13
13
10
10
10
8
8
8
6
6
6
5
5
5
3
3
3
3
3
3
2
2
2
1
1
1
1
1
1
1
1
1
0
0
0
0
0
0
0
0
0
0
0
0
0
0
0
0
0
0
0
0
0
0
0
0
0
0
0
0
0
0
0
0
0
0
0
0
0
0
0
0
0
0
0
0
0
0
0
0
0
0
0
0
0
0
0
0
0
0
0
0
0
0
0
0
0
0
0
0
0
0
0
0
0
0
0
0
0
0
0
0
0
0
0
0
0
0
0
0
0
0
0
0
0
0
0
0
0
0
0
0
0
0
0
0
0
0
0
0
0
0
0
0
0
0
0
0
0
0
0
0
0
0
0
0
0
0
0
0
0
0
0
0
0
0
0
0
0
0
0
0
0
0
0
0
0
0
0
0
0
0
0
0
0
0
0
0
0
0
0
0
0
0
0
0
0
0
0
0
1
1
1
1
1
1
2
2
2
2
2
2
3
3
3
5
5
5
5
5
5
8
8
8
10
10
10
12
12
12
13
13
13
17
17
17
19
19
19
22
22
22
25
25
25
28
28
28
31
31
31
34
34
34
36
36
36
38
38
38
39
39
39
39
39
39
39
39
39
39
39
39
38
38
38
36
36
36
34
34
34
31
31
31
28
28
28
25
25
25
22
22
22
19
19
19
16
16
16
13
13
13
10
10
10
8
8
8
6
6
6
5
5
5
3
3
3
3
3
3
2
2
2
1
1
1
1
1
1
1
1
1
0
0
0
0
0
0
0
0
0
0
0
0
0
0
0
0
0
0
0
0
0
0
0
0
0
0
0
0
0
0
0
0
0
0
0
0
0
0
0
0
0
0
0
0
0
0
0
0
0
0
0
0
0
0
0
0
0
0
0
0
0
0
0
0
0
0
0
0
0
0
0
0
0
0
0
0
0
0
0
0
0
0
0
0
0
0
0
0
0
0
0
0
0
0
0
0
0
0
0
0
0
0
0
0
0
0
0
0
0
0
0
0
0
0
0
0
0
0
0
0
0
0
0
0
0
0
0
0
0
0
0
0
0
0
0
0
0
0
0
0
0
0
0
0
0
0
0
0
0
0
0
0
0
0
0
0
0
0
0
0
0
0
0
0
0
0
0
0
1
1
1
1
1
1
2
2
2
2
2
2
3
3
3
5
5
5
5
5
5
8
8
8
10
10
10
12
12
12
13
13
13
16
16
16
20
20
20
22
22
22
26
26
26
29
29
29
31
31
31
34
34
34
36
36
36
38
38
38
39
39
39
39
39
39
39
39
39
39
39
39
38
38
38
36
36
36
34
34
34
31
31
31
28
28
28
25
25
25
22
22
22
19
19
19
16
16
16
13
13
13
10
10
10
8
8
8
6
6
6
5
5
5
3
3
3
3
3
3
2
2
2
1
1
1
1
1
1
1
1
1
0
0
0
0
0
0
0
0
0
0
0
0
0
0
0
0
0
0
0
0
0
0
0
0
0
0
0
0
0
0
0
0
0
0
0
0
0
0
0
0
0
0
0
0
0
0
0
0
0
0
0
0
0
0
0
0
0
0
0
0
0
0
0
0
0
0
0
0
0
0
0
0
0
0
0
0
0
0
0
0
0
0
0
0
0
0
0
0
0
0
0
0
0
0
0
0
0
0
0
0
0
0
0
0
0
0
0
0
0
0
0
0
0
0
0
0
0
0
0
0
0
0
0
0
0
0
0
0
0
0
0
0
0
0
0
0
0
0
0
0
0
0
0
0
0
0
0
0
0
0
0
0
0
0
0
0
0
0
0
0
0
0
0
0
0
0
0
0
1
1
1
1
1
1
2
2
2
2
2
2
3
3
3
5
5
5
5
5
5
8
8
8
10
10
10
12
12
12
13
13
13
17
17
17
20
20
20
22
22
22
26
26
26
28
28
28
32
32
32
33
33
33
36
36
36
37
37
37
39
39
39
40
40
40
40
40
40
39
39
39
38
38
38
36
36
36
34
34
34
31
31
31
28
28
28
25
25
25
22
22
22
19
19
19
16
16
16
13
13
13
10
10
10
8
8
8
6
6
6
5
5
5
3
3
3
3
3
3
2
2
2
1
1
1
1
1
1
1
1
1
0
0
0
0
0
0
0
0
0
0
0
0
0
0
0
0
0
0
0
0
0
0
0
0
0
0
0
0
0
0
0
0
0
0
0
0
0
0
0
0
0
0
0
0
0
0
0
0
0
0
0
0
0
0
0
0
0
0
0
0
0
0
0
0
0
0
0
0
0
0
0
0
0
0
0
0
0
0
0
0
0
0
0
0
0
0
0
0
0
0
0
0
0
0
0
0
0
0
0
0
0
0
0
0
0
0
0
0
0
0
0
0
0
0
0
0
0
0
0
0
0
0
0
0
0
0
0
0
0
0
0
0
0
0
0
0
0
0
0
0
0
0
0
0
0
0
0
0
0
0
0
0
0
0
0
0
0
0
0
0
0
0
0
0
0
0
0
0
1
1
1
1
1
1
2
2
2
2
2
2
3
3
3
5
5
5
5
5
5
8
8
8
10
10
10
12
12
12
14
14
14
16
16
16
20
20
20
22
22
22
26
26
26
28
28
28
32
32
32
34
34
34
37
37
37
37
37
37
39
39
39
40
40
40
39
39
39
39
39
39
38
38
38
36
36
36
34
34
34
31
31
31
28
28
28
25
25
25
22
22
22
18
18
18
16
16
16
13
13
13
10
10
10
8
8
8
6
6
6
5
5
5
3
3
3
3
3
3
2
2
2
1
1
1
1
1
1
1
1
1
0
0
0
0
0
0
0
0
0
0
0
0
0
0
0
0
0
0
0
0
0
0
0
0
0
0
0
0
0
0
0
0
0
0
0
0
0
0
0
0
0
0
0
0
0
0
0
0
0
0
0
0
0
0
0
0
0
0
0
0
0
0
0
0
0
0
0
0
0
0
0
0
0
0
0
0
0
0
0
0
0
0
0
0
0
0
0
0
0
0
0
0
0
0
0
0
0
0
0
0
0
0
0
0
0
0
0
0
0
0
0
0
0
0
0
0
0
0
0
0
0
0
0
0
0
0
0
0
0
0
0
0
0
0
0
0
0
0
0
0
0
0
0
0
0
0
0
0
0
0
0
0
0
0
0
0
0
0
0
0
0
0
0
0
0
0
0
0
1
1
1
1
1
1
2
2
2
2
2
2
3
3
3
5
5
5
5
5
5
8
8
8
10
10
10
12
12
12
14
14
14
16
16
16
20
20
20
22
22
22
25
25
25
28
28
28
32
32
32
34
34
34
36
36
36
38
38
38
39
39
39
40
40
40
40
40
40
39
39
39
38
38
38
35
35
35
34
34
34
31
31
31
28
28
28
25
25
25
22
22
22
18
18
18
15
15
15
13
13
13
10
10
10
8
8
8
6
6
6
5
5
5
3
3
3
2
2
2
2
2
2
1
1
1
1
1
1
1
1
1
0
0
0
0
0
0
0
0
0
0
0
0
0
0
0
0
0
0
0
0
0
0
0
0
0
0
0
0
0
0
0
0
0
0
0
0
0
0
0
0
0
0
0
0
0
0
0
0
0
0
0
0
0
0
0
0
0
0
0
0
0
0
0
0
0
0
0
0
0
0
0
0
0
0
0
0
0
0
0
0
0
0
0
0
0
0
0
0
0
0
0
0
0
0
0
0
0
0
0
0
0
0
0
0
0
0
0
0
0
0
0
0
0
0
0
0
0
0
0
0
0
0
0
0
0
0
0
0
0
0
0
0
0
0
0
0
0
0
0
0
0
0
0
0
0
0
0
0
0
0
0
0
0
0
0
0
0
0
0
0
0
0
0
0
0
0
0
0
1
1
1
1
1
1
2
2
2
2
2
2
4
4
4
4
4
4
5
5
5
8
8
8
10
10
10
12
12
12
14
14
14
17
17
17
19
19
19
23
23
23
26
26
26
29
29
29
31
31
31
35
35
35
36
36
36
38
38
38
40
40
40
40
40
40
40
40
40
39
39
39
37
37
37
36
36
36
33
33
33
31
31
31
28
28
28
25
25
25
22
22
22
19
19
19
16
16
16
13
13
13
10
10
10
8
8
8
6
6
6
5
5
5
3
3
3
2
2
2
2
2
2
1
1
1
1
1
1
1
1
1
0
0
0
0
0
0
0
0
0
0
0
0
0
0
0
0
0
0
0
0
0
0
0
0
0
0
0
0
0
0
0
0
0
0
0
0
0
0
0
0
0
0
0
0
0
0
0
0
0
0
0
0
0
0
0
0
0
0
0
0
0
0
0
0
0
0
0
0
0
0
0
0
0
0
0
0
0
0
0
0
0
0
0
0
0
0
0
0
0
0
0
0
0
0
0
0
0
0
0
0
0
0
0
0
0
0
0
0
0
0
0
0
0
0
0
0
0
0
0
0
0
0
0
0
0
0
0
0
0
0
0
0
0
0
0
0
0
0
0
0
0
0
0
0
0
0
0
0
0
0
0
0
0
0
0
0
0
0
0
0
0
0
0
0
0
0
0
0
1
1
1
1
1
1
2
2
2
2
2
2
3
3
3
5
5
5
5
5
5
8
8
8
10
10
10
12
12
12
14
14
14
16
16
16
20
20
20
23
23
23
26
26
26
29
29
29
31
31
31
35
35
35
36
36
36
39
39
39
40
40
40
40
40
40
40
40
40
39
39
39
37
37
37
36
36
36
33
33
33
31
31
31
28
28
28
25
25
25
22
22
22
18
18
18
15
15
15
13
13
13
10
10
10
8
8
8
6
6
6
5
5
5
3
3
3
2
2
2
2
2
2
1
1
1
1
1
1
1
1
1
0
0
0
0
0
0
0
0
0
0
0
0
0
0
0
0
0
0
0
0
0
0
0
0
0
0
0
0
0
0
0
0
0
0
0
0
0
0
0
0
0
0
0
0
0
0
0
0
0
0
0
0
0
0
0
0
0
0
0
0
0
0
0
0
0
0
0
0
0
0
0
0
0
0
0
0
0
0
0
0
0
0
0
0
0
0
0
0
0
0
0
0
0
