# Blender v2.78 (sub 0) OBJ File: 'House_3_Tower - 6.blend'
# www.blender.org
o Grass_Plane.008
v 0.000000 0.000000 0.516800
v -0.000000 0.000000 -0.516800
v 0.000000 1.033599 0.516800
v 0.000000 1.033599 -0.516800
v -0.516800 0.000000 -0.000000
v 0.516800 0.000000 -0.000000
v -0.516800 1.033599 0.000000
v 0.516800 1.033599 0.000000
vt 1.0000 0.0000
vt 0.0000 1.0000
vt 0.0000 0.0000
vt 1.0000 0.0000
vt 0.0000 1.0000
vt 0.0000 0.0000
vt 1.0000 1.0000
vt 1.0000 1.0000
vn 1.0000 -0.0000 -0.0000
vn 0.0000 -0.0000 1.0000
s off
f 2/1/1 3/2/1 1/3/1
f 6/4/2 7/5/2 5/6/2
f 2/1/1 4/7/1 3/2/1
f 6/4/2 8/8/2 7/5/2
